<svg aria-hidden="true" style="position: absolute; width: 0; height: 0; overflow: hidden;" version="1.1" xmlns="http://www.w3.org/2000/svg" xmlns:xlink="http://www.w3.org/1999/xlink">
<defs>
<symbol id="icon-coin-euro" viewBox="0 0 32 32">
<path d="M15 2c-8.284 0-15 6.716-15 15s6.716 15 15 15c8.284 0 15-6.716 15-15s-6.716-15-15-15zM15 29c-6.627 0-12-5.373-12-12s5.373-12 12-12c6.627 0 12 5.373 12 12s-5.373 12-12 12z"></path>
<path d="M20.963 20.136c-0.477-0.278-1.089-0.116-1.367 0.362-0.539 0.927-1.534 1.503-2.596 1.503h-4c-1.304 0-2.415-0.836-2.828-2h4.828c0.552 0 1-0.448 1-1s-0.448-1-1-1h-5v-2h5c0.552 0 1-0.448 1-1s-0.448-1-1-1h-4.828c0.413-1.164 1.524-2 2.828-2h4c1.062 0 2.057 0.576 2.596 1.503 0.278 0.477 0.89 0.639 1.367 0.361s0.639-0.89 0.361-1.367c-0.896-1.54-2.553-2.497-4.325-2.497h-4c-2.415 0-4.435 1.72-4.899 4h-1.101c-0.552 0-1 0.448-1 1s0.448 1 1 1h1v2h-1c-0.552 0-1 0.448-1 1s0.448 1 1 1h1.101c0.465 2.279 2.485 4 4.899 4h4c1.772 0 3.429-0.957 4.325-2.497 0.278-0.477 0.116-1.090-0.362-1.367z"></path>
</symbol>
<symbol id="icon-credit-card" viewBox="0 0 32 32">
<path d="M29 4h-26c-1.65 0-3 1.35-3 3v18c0 1.65 1.35 3 3 3h26c1.65 0 3-1.35 3-3v-18c0-1.65-1.35-3-3-3zM3 6h26c0.542 0 1 0.458 1 1v3h-28v-3c0-0.542 0.458-1 1-1zM29 26h-26c-0.542 0-1-0.458-1-1v-9h28v9c0 0.542-0.458 1-1 1zM4 20h2v4h-2zM8 20h2v4h-2zM12 20h2v4h-2z"></path>
</symbol>
<symbol id="icon-history" viewBox="0 0 34 32">
<path d="M20 2c7.732 0 14 6.268 14 14s-6.268 14-14 14v-3c2.938 0 5.701-1.144 7.778-3.222s3.222-4.84 3.222-7.778c0-2.938-1.144-5.701-3.222-7.778s-4.84-3.222-7.778-3.222c-2.938 0-5.701 1.144-7.778 3.222-1.598 1.598-2.643 3.601-3.041 5.778h5.819l-7 8-7-8h5.143c0.971-6.784 6.804-12 13.857-12zM26 14v4h-8v-10h4v6z"></path>
</symbol>
</defs>
</svg>
